# xmcd
#
# Track frame offsets: 
#        150
#        17064
#        32917
#        48224
#        63824
#        79306
#        93632
#        110085
#        122550
#        142317
#        158114
#
# Disc length: 2350 seconds
#
# Revision: 0
# Processed by: cddbd v1.5.2PL0 Copyright (c) Steve Scherf et al.
# Submitted via: ExactAudioCopyFreeDBPlugin 1.0
#
DISCID=95092c0b
DTITLE=Lillie Mae Rische - Rain On The Piano
DYEAR=2015
DGENRE=Rock
TTITLE0=Just The Way It Goes
TTITLE1=Wash Me Clean
TTITLE2=Wild Thing
TTITLE3=Last Call
TTITLE4=Mama
TTITLE5=Livin In The Country
TTITLE6=Pretty Polly
TTITLE7=Sundown In Nashville
TTITLE8=Stay
TTITLE9=Tennessee Line
TTITLE10=Steam Powered Aeroplane
EXTD=
EXTT0=
EXTT1=
EXTT2=
EXTT3=
EXTT4=
EXTT5=
EXTT6=
EXTT7=
EXTT8=
EXTT9=
EXTT10=
PLAYORDER=
